# xmcd CD database file
#
# Track frame offsets:
#	150
#	31372
#	68897
#	100837
#	143117
#	169870
#	202882
#	221912
#	263805
#	283802
#
# Disc length: 4127 seconds
#
# Revision: 0
# Processed by: cddbd v1.5.1PL0 Copyright (c) Steve Scherf et al.
# Submitted via: CDex 1.51
#
DISCID=99101d0a
DTITLE=George Benson - Jazz Moods: Hot
DYEAR=2004
DGENRE=Jazz
TTITLE0=White Rabbit
TTITLE1=Body Talk
TTITLE2=Take Five
TTITLE3=Old Devil Moon
TTITLE4=Theme From Good King Bad
TTITLE5=California Dreamin'
TTITLE6=Take The 'A' Train
TTITLE7=So What
TTITLE8=Clockwise
TTITLE9=Hold On I'm Comin'
EXTD=YEAR: 2004
EXTT0=
EXTT1=
EXTT2=
EXTT3=
EXTT4=
EXTT5=
EXTT6=
EXTT7=
EXTT8=
EXTT9=
PLAYORDER=
